<?xml version="1.0" encoding="utf-8"?>
<svg version="1.1" xmlns="http://www.w3.org/2000/svg" width="482" height="426" viewBox="0 0 482 426" xml:space="preserve">
<style type="text/css">
style ~ :not([stroke-width]){
	stroke-width: 6;
}
path, style ~ :not(text){
	fill: none;
	stroke: #000;
	stroke-linecap: round;
	stroke-miterlimit: 10;
}
.skin  { fill: #fcef35; }
.beard { fill: #af8c67; }
.strike{
	fill: none;
	stroke: #f00;
	stroke-width: 3.1465;
}
.pupil { fill: #fff; stroke: none; }
.iris  { fill: #000; stroke: none; }
.sclera, #teeth > path{
	fill: #fff;
	stroke-width: 5;
	stroke-miterlimit: 50;
}
</style>
<text x="346.4119" y="294.4527" font-family="'Times-Bold'" font-size="24px">friendship</text>
<path class="strike" d="M342.1,291.1c18.6-10.4,66.9,8.3,112.8-7.5"/>
<text transform="matrix(0.9956 -9.394000e-02 9.394000e-02 0.9956 355.2036 326.3049)" fill="#FF0000" font-family="'Times-BoldItalic'" font-size="31.6497px">postscript</text>

<path class="skin" d="M180,422.8c0,0-27.6-26.9-61.7-68.7c-6.3-7.7-15.3-13.9-23.8-21.8c-5.5-5-10.7-10.7-14.9-17.8c-20.4-34.4-24.5-36.4-40.8-66.8c-8.9-16.6-14.9-29.8-16.6-43.9c-3.8-13.9-5.7-32.9-8.7-48.5c-4.5-23.2-1.1-37.1,0-51.9C15.5,75.6,23.9,58.2,35.7,45c6-6.7,11.4-12.8,20.2-17.6c10.2-5.6,24.4-12,35.7-14.6c13.6-3.1,24.3-1.5,36.3,1.2c15,3.4,26.5,13.7,36.8,22.5c5.2,4.4,10.8,6.3,14.8,11.2c6.7-8,13.2-21.7,34.5-34.2c25.5-14.9,63.2-12.9,87.7-1.4c28.7,13.4,39.6,46.4,43.3,90.4c1.9,22.2,14,8.9,1.3,73.9c-3.3,17-10,32.6-16.9,47.6c-10.3,22.3-22,43.2-28.8,64.9c-6.3,20.4-12.1,38.1-30.6,56.8C249,367.3,180,422.8,180,422.8z"/>
<path class="skin" d="M22.4,154.8C7.6,146.4,0,168.5,4.1,182.1c4.5,15.1,25.9,29,27.1,7.5"/>
<path class="skin" stroke-width="4" d="M17.9,174.8c0,0-7.3,0.1-6.2-4.1c1-5.6,2.6-11.6,9.7-8.5"/>
<path class="skin" stroke-width="3" d="M15.6,179.3l1.7,9.2c0,0,4.2-12.3,9.1-7.4"/>
<path class="beard" stroke-width="5" d="M330.5,275.2c3,0.9,7.4-1.3,8.7-5.5c-0.1-21.5-4.4-33.8-9.7-45.6c-4.5-9.8-7.8-16.4-16.4-22.2c-7.2-4.8-19.4-9.9-28-12.9l-51.3-0.4c0,0-15,11.5-23.8,26.4c-10.9,18.5-16,33.9-17.5,57.7c-1.7,27.9-1.4,31.6,34.5,64.1c4.9,4.5,13.6,4,22.1,5.7c7.4,1.7,13.2,3.6,21,3.2c2.6-0.1,9.1-0.9,16.4-3.6c11.7,3.2,19.1,4.7,29.6,2.8c10.4-1.9,20.6-14.5,24.9-32.7c1.7-7.3,0.1-13.9-3.2-19.3C332.6,284.4,330.5,275.2,330.5,275.2z"/>
<path class="skin" d="M222.2,162.1c0,0-10.8,2.3-12.8,10c-1.3,5.1-0.4,14.9,15.1,19.5c38.5,2.2,118.3-2.2,118.3-2.2c16.7-2.2,22-24,1.7-27.3c0,0-60.8-4.5-78.7-23.4c-17.9-19-24.6-53-1.7-55.8"/>
<g id="teeth">
	<path d="M205,273.7c0,0,2.4,2.2,2.4,7.1c0,4.9,0.3,17.4,5.7,17.7c4.6,0.3,11.4,1,17.2-0.2c5.9-1.2,8.7-3.3,8.7-3.3c4.5,2.5,9.8,2.9,15.7,1.4c6.8,2.4,13.1,2.1,19.1,0.8c6.5,1.8,14.2,0.3,21.9-1c4.6,2.5,9.4,1.6,16.8-0.6c6,1,12.3,1.4,16.9-0.8l1-19.5c-9.5,0-24.4,2.2-35.4,1c-3.9-0.4-3.9-4.8-7.8-5c-12-0.6-23.4,1.4-34.3,2.6c-7.3,0.8-12.6-0.3-18.1-0.3c-5.6-0.1-12.2,2-16.2,2.2C211.2,276.1,208.2,274.7,205,273.7z"/>
	<path d="M217.7,276.5c0,0-2.6,3.7-1.7,6.3"/>
	<path d="M217.9,288.8c0,0-0.5,4.4,0.9,7.6"/>
	<path d="M236,274c0,0-0.4,4.5,0.4,5.6"/>
	<path d="M237.1,285.5c-0.4,3.1,0.3,6.3,2,9.4"/>
	<path d="M252.8,275.6c0,0-0.6,2.4,0,4.2"/>
	<path d="M253.6,287.5c-0.2,3.6,0.1,6.9,1.2,9.5"/>
	<path d="M271.4,271.8c0,0-0.4,5.1,0,6.5"/>
	<path d="M273.5,287.8c-1.4,3.2-1,5.4,1.6,9.1"/>
	<path d="M293.8,276.1c0,0-0.8,3.3,0,5.1"/>
	<path d="M294.5,288.7c0,0-0.1,3.9,1.2,7.4"/>
	<line x1="312.9" y1="276.4" x2="312.9" y2="282"/>
	<line x1="312.4" y1="289.2" x2="312.5" y2="295.5"/>
</g>
<path class="sclera" d="M83.7,101.1c8.4-10.3,30.5-14.8,47.7-14c15.7,0.7,26.3,5.8,39.8,17.1c0,1.3-3.8,5.9-8.2,10.5c-3.2,3.3-6.2,7-10.4,7.3c-17.8,1.3-40.4,2.1-56.6-2.8c-5.2-1.6-8-5.3-12-7.9C79.6,108.4,82.2,103,83.7,101.1z"/>
<path class="sclera" d="M271.8,105.2c2.8-4.8,13.9-8.3,24.1-11.9c10.1-3.6,19.2-7.4,27.5-8.5c20.2-2.6,34.4,5.3,44.6,28c-6.1,0.4-5.5,4.4-8.5,5.6c-2.4,0.9-5.6,0-7.9,1.4c-2,1.2-4.5,1.5-6.9,2.9c-2.2,1.3-4.3,3.8-5.8,3.5c-11.3-2.2-31.3-1.5-40.7-2.7C291.4,122.5,289.5,115.5,271.8,105.2z"/>
<path class="iris"   d="M151.7,99.5c0.8,13.4-11.4,24-25.5,22.7c-9.4-0.9-18.3-7.1-18.3-16.5s-1.3-14.2,7.5-17.5c2.3-0.9,5.7-4.1,9.3-4c4.9,0,6.7,2.8,14,4.5C144.4,89.9,151.2,89.8,151.7,99.5z"/>
<path class="iris"   d="M346.4,101.1c1,13.4-0.8,29.7-31.4,22.7c-11.3-2.6-22.5-7.1-22.5-16.5s-1.5-14.2,9.3-17.5c2.9-0.9,7-4.1,11.5-4c6,0,11.1-0.7,20,1C340.2,88,345.7,91.5,346.4,101.1z"/>
<path stroke-width="5" d="M116.1,84.6c0,0-2,3.8-1.9,7.9" style="fill: none" />
<ellipse class="pupil" transform="matrix(0.3634 -0.9316 0.9316 0.3634 -6.1171 196.4463)" cx="140.7" cy="102.7" rx="2.6" ry="1.9"/>
<ellipse class="pupil" transform="matrix(0.3634 -0.9316 0.9316 0.3634 115.933 380.9236)" cx="336.7" cy="105.6" rx="2.3" ry="2.3"/>
</svg>
